<svg width="44" height="38" viewBox="0 0 44 38" fill="none" xmlns="http://www.w3.org/2000/svg">
<path id="fa-commenting-o" d="M15.7143 15.8333C15.7143 14.0768 14.3147 12.6667 12.5714 12.6667C10.8281 12.6667 9.42857 14.0768 9.42857 15.8333C9.42857 17.5898 10.8281 19 12.5714 19C14.3147 19 15.7143 17.5898 15.7143 15.8333ZM25.1429 15.8333C25.1429 14.0768 23.7433 12.6667 22 12.6667C20.2567 12.6667 18.8571 14.0768 18.8571 15.8333C18.8571 17.5898 20.2567 19 22 19C23.7433 19 25.1429 17.5898 25.1429 15.8333ZM34.5714 15.8333C34.5714 14.0768 33.1719 12.6667 31.4286 12.6667C29.6853 12.6667 28.2857 14.0768 28.2857 15.8333C28.2857 17.5898 29.6853 19 31.4286 19C33.1719 19 34.5714 17.5898 34.5714 15.8333ZM22 3.16667C32.2143 3.16667 40.8571 8.95573 40.8571 15.8333C40.8571 22.7109 32.2143 28.5 22 28.5C20.9442 28.5 19.8638 28.4258 18.808 28.3021L17.4085 28.1536L16.3527 29.0938C14.3393 30.875 12.0804 32.2852 9.60045 33.3242C10.2388 32.1862 10.8527 30.8255 11.3192 29.069L11.9821 26.694L9.84598 25.457C5.59821 23.0326 3.14286 19.5195 3.14286 15.8333C3.14286 8.95573 11.7857 3.16667 22 3.16667ZM44 15.8333C44 7.10026 34.154 0 22 0C9.84598 0 0 7.10026 0 15.8333C0 20.8555 3.24107 25.3333 8.29911 28.2279C7.14509 32.3594 5.37723 33.8438 3.83036 35.6003C3.46205 36.0456 3.04464 36.4167 3.16741 37.0352C3.16741 37.0352 3.16741 37.0352 3.16741 37.0599C3.29018 37.6042 3.73214 38 4.22321 38C4.24777 38 4.29688 38 4.34598 38C5.30357 37.8763 6.26116 37.7031 7.14509 37.4557C11.3929 36.3672 15.2232 34.3385 18.4397 31.4688C19.5938 31.5924 20.7969 31.6667 22 31.6667C34.154 31.6667 44 24.5911 44 15.8333Z" fill="#DEDEDE"/>
</svg>
