<svg width="170" height="32" viewBox="0 0 170 32" fill="none" xmlns="http://www.w3.org/2000/svg">
<g id="Vector">
<path d="M8.80357 6.625C8.42857 6.625 8.125 6.30357 8.125 5.92857C8.125 5.55357 8.42857 5.23214 8.80357 5.23214C9.19643 5.23214 9.5 5.55357 9.5 5.92857C9.5 6.30357 9.19643 6.625 8.80357 6.625ZM16.3393 6.625C15.9464 6.625 15.6429 6.30357 15.6429 5.92857C15.6429 5.55357 15.9464 5.23214 16.3393 5.23214C16.7143 5.23214 17.0179 5.55357 17.0179 5.92857C17.0179 6.30357 16.7143 6.625 16.3393 6.625ZM1.83929 9.91072C0.821429 9.91072 0 10.7321 0 11.7321V19.4107C0 20.4286 0.821429 21.25 1.83929 21.25C2.85714 21.25 3.66071 20.4286 3.66071 19.4107V11.7321C3.66071 10.7321 2.83929 9.91072 1.83929 9.91072ZM20.7679 10.25H4.375V22.1429C4.375 23.2321 5.25 24.1071 6.33929 24.1071H7.66071L7.67857 28.1607C7.67857 29.1786 8.5 30 9.5 30C10.5179 30 11.3393 29.1786 11.3393 28.1607V24.1071H13.8036V28.1607C13.8036 29.1786 14.625 30 15.6429 30C16.6607 30 17.4821 29.1786 17.4821 28.1607V24.1071H18.8214C19.8929 24.1071 20.7679 23.2321 20.7679 22.1429V10.25ZM16.625 3.01786L17.8929 0.678572C17.9643 0.553572 17.9286 0.392859 17.8036 0.32143C17.6786 0.267859 17.5179 0.303572 17.4464 0.428572L16.1607 2.78572C15.0714 2.30357 13.8571 2.03572 12.5714 2.03572C11.2857 2.03572 10.0714 2.30357 8.98214 2.78572L7.69643 0.428572C7.625 0.303572 7.46429 0.267859 7.33929 0.32143C7.21429 0.392859 7.17857 0.553572 7.25 0.678572L8.51786 3.01786C6 4.30357 4.30357 6.76786 4.30357 9.60714H20.8214C20.8214 6.76786 19.125 4.30357 16.625 3.01786ZM25.1429 11.7321C25.1429 10.7143 24.3214 9.91072 23.3036 9.91072C22.3036 9.91072 21.4821 10.7143 21.4821 11.7321V19.4107C21.4821 20.4286 22.3036 21.25 23.3036 21.25C24.3214 21.25 25.1429 20.4286 25.1429 19.4107V11.7321Z" fill="#DEDEDE"/>
<path d="M82.1786 17.9643H70V27.9107L82.1786 29.5893V17.9643ZM82.1786 4.69643L70 6.375V16.4643H82.1786V4.69643ZM99.7143 17.9643H83.5179V29.7679L99.7143 32V17.9643ZM99.7143 2.28572L83.5179 4.51786V16.4643H99.7143V2.28572Z" fill="#DEDEDE"/>
<path d="M167.125 13.8571C166.857 13.8571 166.571 13.9107 166.304 14L163.375 15L161.5 9.35714L164.304 8.39286C165.304 8.05357 166.161 7.125 166.161 6.01786C166.161 4.58929 164.964 3.55357 163.571 3.55357C163.304 3.55357 163.054 3.58929 162.804 3.66072L159.911 4.64286L158.964 1.76786C158.607 0.714287 157.607 0 156.482 0C155.071 0 153.911 1.17857 153.911 2.58929C153.911 2.875 153.964 3.16072 154.054 3.42857L155.018 6.28572L149.482 8.16072L148.518 5.30357C148.161 4.23214 147.179 3.53572 146.054 3.53572C144.625 3.53572 143.482 4.71429 143.482 6.125C143.482 6.41072 143.536 6.69643 143.625 6.96429L144.571 9.80357L141.768 10.75C140.714 11.1071 140 12.1071 140 13.2143C140 14.6429 141.107 15.7321 142.536 15.7321C142.821 15.7321 143.107 15.6786 143.393 15.5893L146.179 14.625L148.054 20.2143L145.268 21.1607C144.214 21.5179 143.5 22.5179 143.5 23.625C143.5 25.0714 144.589 26.1429 146.036 26.1429C146.339 26.1429 146.643 26.0714 146.929 25.9821L149.661 25.0357L150.643 27.9464C151 29.0179 151.982 29.7143 153.107 29.7143C154.536 29.7143 155.679 28.5179 155.679 27.125C155.679 26.8393 155.625 26.5536 155.536 26.2857L154.554 23.3571L160.089 21.4643L161.071 24.4107C161.429 25.4821 162.429 26.1786 163.554 26.1786C164.964 26.1786 166.107 25 166.107 23.5893C166.107 23.3036 166.071 23.0179 165.982 22.75L164.982 19.7679L168.054 18.7143C169.125 18.3393 169.714 17.5357 169.714 16.3929C169.714 14.9286 168.589 13.8571 167.125 13.8571ZM152.946 18.5357L151.071 12.9464L156.607 11.0357L158.482 16.6607L152.946 18.5357Z" fill="#DEDEDE"/>
</g>
</svg>
